<?xml version="1.0" encoding="UTF-8" standalone="no"?>
<!-- Created with Inkscape (http://www.inkscape.org/) -->

<svg
   width="476.83002mm"
   height="474.7655mm"
   viewBox="0 0 476.83002 474.7655"
   version="1.1"
   id="svg1"
   xml:space="preserve"
   xmlns="http://www.w3.org/2000/svg"
   xmlns:svg="http://www.w3.org/2000/svg"><defs
     id="defs1" /><g
     id="layer1"
     transform="translate(671.22852,-406.62495)"
     style="fill:#ffffff"><path
       style="fill:#ffffff"
       d="m -445.70419,881.24716 c -20.66583,-1.03074 -39.22293,-4.11418 -56.79117,-9.43642 -4.92048,-1.49064 -15.96508,-5.4231 -25.66459,-9.13796 -17.16189,-6.57291 -29.8288,-13.18115 -40.25117,-20.99878 -3.27302,-2.45503 -15.86446,-13.19279 -23.32334,-19.88973 -25.59889,-22.98395 -40.97668,-42.58533 -54.01831,-68.85472 -9.94865,-20.0393 -16.40141,-39.41673 -21.54614,-64.70237 -2.88622,-14.18537 -3.93163,-24.38851 -3.92961,-38.35284 0.003,-18.58721 1.91207,-37.77458 5.48969,-55.16563 5.6109,-27.27494 16.46989,-53.11252 33.41522,-79.50729 10.90758,-16.99012 19.3896,-27.64142 32.46158,-40.76365 11.19449,-11.23753 19.1456,-17.65643 34.39583,-27.76757 14.91523,-9.88904 31.02327,-18.73683 41.80417,-22.96212 9.12314,-3.57558 36.95976,-11.36005 48.81563,-13.65123 18.19312,-3.51587 39.5428,-4.35874 60.72187,-2.39725 14.61948,1.35398 30.66729,3.88702 41.93646,6.61939 35.73077,8.66343 70.63038,27.37021 100.40938,53.82112 8.02272,7.12611 16.53646,15.76507 16.53646,16.77969 0,0.66061 -0.68305,1.34974 -1.33783,1.34974 -0.27845,0 -2.5619,-1.23427 -5.07433,-2.74282 -24.89109,-14.94549 -52.57502,-25.78996 -78.78368,-30.8615 -14.20324,-2.74841 -25.94497,-3.81814 -41.93646,-3.82061 -21.47063,-0.003 -37.42997,2.22634 -55.83536,7.80068 -14.20414,4.30193 -34.09245,13.13094 -46.02922,20.43375 -20.48647,12.53343 -45.56979,34.98074 -58.90475,52.71446 -4.54579,6.04529 -7.15819,10.42078 -11.36173,19.02969 -9.94358,20.36458 -15.61147,42.98645 -16.90932,67.48906 -0.61252,11.56397 0.009,24.64649 1.60302,33.73438 1.12565,6.4182 4.16573,17.61666 7.25036,26.70744 8.20897,24.19289 17.80669,39.96358 34.9273,57.39152 9.3926,9.5612 18.31304,16.73965 29.50449,23.74285 21.96053,13.74207 43.38632,21.88056 66.41042,25.2257 8.19505,1.19064 12.41875,1.4608 22.88646,1.46388 10.51222,0.003 14.01795,-0.22931 22.35729,-1.48215 23.6088,-3.54679 51.19637,-14.68721 70.90834,-28.6342 14.74836,-10.43505 29.60802,-26.30588 41.15709,-43.95775 2.90259,-4.43638 5.40097,-8.59809 7.31162,-12.1794 1.29263,-2.4229 1.47574,-2.64392 2.25274,-2.71918 0.74478,-0.0721 0.93207,0.0542 1.5688,1.05833 0.39768,0.62714 1.57763,2.92619 2.6221,5.109 5.84773,12.221 9.45949,24.4272 11.27361,38.1 0.80995,6.10455 0.8828,19.39975 0.13773,25.13542 -1.897,14.60323 -6.31584,27.26195 -13.8574,39.69753 -10.74942,17.72513 -28.1313,34.02152 -50.48383,47.33116 -2.18176,1.29912 -4.80027,2.91396 -5.81892,3.58854 -4.03863,2.67452 -8.98971,5.25593 -15.41575,8.03752 -20.95979,9.0727 -49.88775,15.27469 -81.02488,17.37129 -5.5873,0.37621 -24.22371,0.53414 -29.85987,0.25303 z m 212.8854,-108.23047 c -0.60326,-0.35137 -0.59128,-1.36411 0.0462,-3.90347 1.59635,-6.35909 2.22531,-12.06422 2.23628,-20.28471 0.01,-7.36362 -0.33773,-11.36145 -1.5673,-18.02834 -3.1949,-17.32309 -11.32921,-35.19836 -23.57706,-51.81098 -1.06854,-1.44933 -1.9428,-2.83183 -1.9428,-3.07223 0,-0.24039 0.48819,-1.47884 1.08486,-2.7521 3.62854,-7.74311 6.14924,-16.66716 7.36339,-26.06865 1.01601,-7.8673 1.20937,-11.50356 1.19592,-22.48958 -0.0166,-13.5804 -0.83892,-23.85058 -2.92336,-36.5125 -5.09543,-30.95221 -18.56977,-65.50439 -38.52364,-98.78595 -1.93294,-3.22401 -3.1199,-5.47077 -3.07047,-5.81199 0.0443,-0.30594 0.39835,-0.73402 0.78672,-0.95129 0.68261,-0.38188 0.89411,-0.301 6.35,2.42838 20.02171,10.01614 38.41052,24.28777 52.61525,40.83492 16.05904,18.70724 30.77665,50.63691 35.17366,76.30885 5.46468,31.90542 3.77949,71.86683 -4.35704,103.31979 -5.57073,21.53451 -14.83121,43.73234 -26.2333,62.88253 -1.35738,2.27977 -2.65653,4.33359 -2.887,4.56406 -0.47797,0.47798 -1.09829,0.52467 -1.7703,0.13326 z m -190.56615,-8.20456 c -9.32184,-0.62149 -19.72308,-2.62577 -28.04628,-5.4044 -21.17731,-7.06987 -42.92975,-21.51708 -58.73777,-39.01157 -14.12354,-15.6303 -24.57885,-32.49206 -29.93858,-48.28332 -3.67291,-10.82139 -6.07903,-23.70582 -6.60934,-35.39206 -0.19424,-4.28028 -0.0833,-4.70582 1.22675,-4.70582 0.40093,0 0.84968,0.14883 0.99724,0.33073 0.14755,0.1819 0.89122,1.87854 1.6526,3.77031 3.09974,7.7018 8.16856,17.37656 12.89175,24.60625 12.79982,19.59243 32.57087,36.8892 54.88947,48.02024 10.20772,5.09094 19.00661,7.99314 29.97832,9.88798 29.03167,5.01382 59.43424,0.55868 85.69897,-12.55819 4.89959,-2.44691 5.42372,-2.57514 6.03852,-1.47742 0.45252,0.80797 0.43616,11.94615 -0.0224,15.26177 -0.94318,6.81935 -2.56563,12.46172 -5.05937,17.59479 -6.17057,12.70142 -16.95798,21.03783 -32.21846,24.89811 -8.49597,2.14914 -22.09802,3.1722 -32.7414,2.4626 z m 67.56818,-10.92299 c -0.40003,-0.87798 -0.24768,-1.18227 2.09346,-4.18134 5.43237,-6.95905 9.16853,-16.79305 10.8889,-28.66088 0.78255,-5.39832 1.14884,-13.38652 0.86744,-18.91737 -0.12957,-2.54662 -0.18812,-4.76576 -0.13011,-4.93143 0.058,-0.16567 1.61587,-1.6139 3.46192,-3.2183 3.93616,-3.42091 11.30855,-10.85781 14.88343,-15.01364 14.84546,-17.25802 24.62548,-34.90164 30.132,-54.35955 5.32478,-18.81573 7.13419,-47.59185 4.36712,-69.45313 -1.61325,-12.74553 -5.38249,-27.68109 -10.19816,-40.41005 -0.77265,-2.04231 -1.24374,-3.66748 -1.14932,-3.96497 0.22614,-0.71252 1.23462,-1.12796 1.88856,-0.77798 0.57667,0.30863 4.30735,5.61901 7.92892,11.28633 12.07821,18.90092 20.50765,37.44284 24.77842,54.50417 1.78499,7.13087 2.80499,13.74452 3.67252,23.8125 0.4652,5.39883 0.46104,26.91736 -0.006,32.41146 -1.11138,13.06659 -3.13468,24.51481 -6.25161,35.37288 -1.73333,6.03816 -3.60374,10.76426 -6.71347,16.96335 -13.14685,26.20761 -30.4161,43.76438 -59.31423,60.30176 -5.9326,3.39502 -18.53649,9.61648 -19.83445,9.79057 -0.93879,0.12592 -1.08152,0.068 -1.36508,-0.55438 z"
       id="path1" /></g></svg>
